<?xml version="1.0" standalone="no"?>
<!DOCTYPE svg PUBLIC "-//W3C//DTD SVG 20010904//EN"
 "http://www.w3.org/TR/2001/REC-SVG-20010904/DTD/svg10.dtd">
<svg version="1.0" xmlns="http://www.w3.org/2000/svg"
 width="225.000000pt" height="225.000000pt" viewBox="0 0 225.000000 225.000000"
 preserveAspectRatio="xMidYMid meet">

<g transform="translate(0.000000,225.000000) scale(0.100000,-0.100000)"
fill="#000000" stroke="none">
<path d="M970 2239 c-361 -47 -702 -298 -861 -634 -96 -203 -129 -434 -94
-651 41 -254 149 -459 335 -638 151 -145 301 -228 509 -283 85 -23 116 -26
266 -26 151 0 181 3 268 26 215 57 367 145 528 306 122 123 190 225 248 376
61 157 75 236 75 415 0 174 -17 261 -77 415 -98 246 -307 471 -552 593 -180
90 -430 129 -645 101z m422 -42 c403 -105 696 -398 806 -805 23 -87 26 -115
26 -267 0 -152 -3 -180 -26 -267 -109 -405 -401 -697 -806 -806 -87 -23 -115
-26 -267 -26 -151 0 -181 3 -266 26 -208 56 -375 151 -517 295 -141 143 -235
310 -290 511 -23 87 -26 115 -26 267 0 152 3 180 26 267 117 433 448 741 883
823 121 22 333 14 457 -18z"/>
<path d="M1137 2163 c10 -3 11 -27 6 -94 -5 -76 -4 -89 9 -89 18 0 28 20 28
55 0 17 7 24 29 28 35 7 61 32 61 57 0 30 -39 50 -95 49 -27 0 -44 -3 -38 -6z
m93 -46 c0 -25 -17 -47 -37 -47 -14 0 -17 30 -7 67 5 19 10 21 25 12 10 -5 19
-20 19 -32z"/>
<path d="M1327 2144 c10 -5 1 -49 -31 -152 -5 -14 -1 -21 13 -25 16 -4 22 7
41 80 23 87 38 101 64 61 14 -23 -3 -52 -33 -56 -11 -2 -21 -9 -21 -15 1 -27
40 -97 55 -97 18 0 18 -1 0 43 -20 47 -19 54 5 62 25 8 42 38 34 59 -6 15 -92
47 -123 45 -9 0 -11 -3 -4 -5z"/>
<path d="M823 2130 c-28 -11 -46 -45 -38 -70 6 -18 24 -27 66 -33 25 -4 39
-18 39 -38 0 -19 -8 -23 -46 -20 -12 1 -24 -5 -27 -13 -5 -12 0 -16 17 -16 38
0 56 10 71 41 23 43 5 79 -38 79 -62 0 -80 47 -19 52 20 2 37 8 37 13 0 13
-35 16 -62 5z"/>
<path d="M1510 2077 c0 -7 -15 -44 -33 -82 l-33 -69 49 -23 c56 -26 57 -26 57
-13 0 6 -6 10 -13 10 -7 0 -21 6 -31 13 -15 11 -16 17 -5 40 13 28 37 35 56
16 8 -8 13 -8 17 0 4 6 -4 15 -18 21 -29 11 -33 27 -13 54 11 15 17 16 35 7
24 -13 32 -14 32 -3 0 7 -77 42 -93 42 -4 0 -7 -6 -7 -13z"/>
<path d="M627 2043 c-4 -3 -7 -53 -7 -109 0 -88 2 -103 15 -98 10 4 15 20 15
48 0 34 5 44 27 58 26 15 28 15 60 -10 31 -23 36 -24 50 -10 13 14 10 19 -34
49 -26 18 -61 43 -76 56 -30 24 -39 27 -50 16z m47 -62 c17 -18 17 -20 -2 -30
-17 -9 -20 -7 -24 19 -5 35 2 38 26 11z"/>
<path d="M1646 1984 c-22 -21 -20 -46 5 -77 16 -21 18 -31 9 -47 -14 -25 -26
-25 -47 0 -18 20 -43 27 -43 12 0 -18 38 -42 66 -42 59 0 82 38 52 88 -21 34
-18 62 6 62 8 0 18 -9 21 -20 6 -20 45 -29 45 -10 0 13 -60 50 -82 50 -9 0
-24 -7 -32 -16z"/>
<path d="M468 1936 c-51 -45 -64 -67 -24 -41 24 16 25 16 76 -50 42 -53 55
-63 66 -54 14 11 9 25 -16 49 -16 15 -70 89 -70 95 0 4 7 13 17 20 9 7 12 14
7 17 -5 3 -30 -13 -56 -36z"/>
<path d="M933 1925 c-40 -17 -43 -30 -5 -20 30 9 80 8 95 -2 5 -3 -1 -12 -14
-19 -23 -13 -23 -13 -3 -14 12 0 38 7 59 16 50 20 57 10 9 -13 -40 -19 -63
-47 -51 -60 5 -4 12 -1 17 7 15 25 19 7 7 -33 -7 -20 -18 -37 -26 -37 -11 0
-11 -3 -1 -15 10 -12 8 -20 -9 -41 -25 -32 -28 -53 -3 -32 9 9 27 19 40 22 13
5 22 15 22 27 0 19 1 19 16 4 15 -15 18 -14 31 5 8 11 16 30 18 42 3 12 9 26
15 32 5 5 10 16 10 23 0 9 -6 8 -20 -4 -11 -10 -20 -25 -20 -35 0 -11 -7 -18
-19 -18 -11 0 -21 -6 -24 -12 -2 -7 -6 2 -9 20 -5 37 -5 37 16 16 21 -20 20 0
0 32 -19 28 -16 33 41 63 36 19 37 21 15 22 -48 3 -69 6 -97 17 -51 19 -78 21
-110 7z"/>
<path d="M1190 1911 c0 -7 4 -9 10 -6 28 17 120 -36 197 -113 24 -24 40 -32
68 -32 64 0 165 -87 165 -142 0 -23 55 -85 91 -104 44 -22 37 -44 -13 -44 -28
0 -38 3 -30 9 17 10 -140 175 -183 191 -37 14 -45 4 -14 -17 13 -10 44 -37 69
-61 l45 -44 -32 6 c-18 3 -77 26 -131 51 -55 25 -104 45 -109 45 -16 0 -23 26
-23 79 0 26 -6 53 -12 60 -11 10 -8 16 12 32 27 22 26 22 -40 3 -14 -4 -20 -1
-20 10 0 8 -9 20 -19 26 -25 13 -78 13 -86 0 -4 -6 8 -10 30 -10 43 0 56 -22
30 -50 -23 -25 -13 -37 19 -22 20 9 27 7 41 -8 10 -11 14 -26 11 -38 -5 -16
-15 -20 -46 -18 -44 1 -52 12 -18 25 20 7 20 9 -11 13 -24 4 -34 1 -38 -11 -3
-9 -14 -25 -23 -36 -21 -24 -35 -91 -20 -100 6 -3 10 3 10 16 0 47 15 5 17
-48 2 -63 0 -58 31 -67 16 -6 22 -3 22 8 0 11 9 16 28 17 24 0 25 1 7 9 -11 5
-33 9 -49 9 -23 1 -27 4 -21 19 17 40 17 63 -1 84 -19 20 -19 20 14 13 35 -7
42 1 15 20 -13 10 -11 11 16 7 17 -2 36 -13 42 -24 9 -16 6 -20 -20 -29 -17
-6 -28 -15 -25 -20 8 -14 39 -11 71 7 28 17 31 16 114 -23 47 -22 92 -49 100
-60 8 -11 23 -23 34 -28 19 -8 19 -9 -3 -12 -15 -3 -34 6 -58 26 -62 55 -173
98 -188 73 -3 -5 11 -13 32 -17 37 -7 119 -51 157 -85 21 -19 36 -22 190 -45
55 -8 123 -21 150 -30 43 -13 53 -21 68 -55 9 -22 17 -52 17 -66 0 -23 -3 -25
-26 -20 -32 8 -74 35 -74 47 0 5 18 6 40 3 42 -7 57 9 19 21 -16 5 -18 9 -8
21 18 22 4 28 -23 10 -23 -15 -79 -30 -157 -43 -25 -4 -36 -1 -43 11 -5 9 -15
16 -22 16 -8 0 -16 7 -20 15 -3 9 -18 15 -38 14 -28 0 -30 -2 -13 -9 11 -5 16
-9 10 -10 -5 0 0 -8 13 -18 l23 -18 -24 -11 c-28 -13 -39 -8 -58 28 -8 15 -25
46 -38 70 -17 31 -19 40 -7 30 9 -8 19 -12 21 -9 9 8 -26 48 -42 48 -9 0 -31
12 -50 26 -44 33 -79 25 -39 -9 43 -37 33 -48 -26 -27 -28 10 -58 16 -65 13
-15 -6 -18 -33 -2 -33 5 0 23 -28 40 -63 23 -51 30 -81 34 -152 5 -101 -4
-146 -39 -194 -16 -21 -27 -54 -32 -88 -12 -95 -84 -170 -175 -182 l-54 -7 36
-11 c25 -7 54 -7 94 0 82 14 88 5 82 -138 -4 -119 -21 -177 -60 -207 l-22 -18
26 0 c14 0 43 13 65 30 l41 29 6 148 c8 171 22 268 43 301 16 24 39 20 30 -5
-8 -19 12 -93 24 -93 6 0 10 20 10 45 0 45 9 56 28 32 24 -28 24 -66 2 -97
-27 -37 -22 -60 26 -143 21 -35 34 -71 34 -92 0 -27 6 -37 30 -51 16 -10 35
-31 41 -47 7 -16 22 -41 34 -56 12 -14 25 -39 29 -54 7 -30 34 -47 45 -29 3 6
22 14 41 17 35 6 60 27 60 51 0 7 8 10 20 7 15 -4 33 7 66 40 46 46 46 46 39
99 -10 74 -25 89 -41 43 -13 -40 -21 -51 -29 -43 -3 3 2 22 11 44 12 29 13 43
5 56 -6 10 -11 24 -11 31 0 15 -46 44 -55 35 -3 -3 3 -21 14 -39 20 -35 15
-79 -9 -79 -7 0 -9 -8 -5 -20 9 -27 -6 -50 -15 -24 -4 11 0 39 11 66 11 29 15
50 9 53 -15 9 -30 -4 -30 -25 0 -10 -9 -25 -20 -33 -10 -7 -24 -25 -29 -40 -6
-15 -15 -27 -21 -27 -6 0 -5 8 2 20 11 18 10 24 -12 41 -14 12 -19 18 -12 14
16 -8 15 10 -3 45 -14 27 -14 30 5 40 21 11 23 8 20 -27 -2 -25 16 -63 29 -63
5 0 14 13 20 30 5 16 15 30 20 30 6 0 11 9 11 20 0 15 -14 27 -50 44 -27 13
-55 27 -62 33 -7 6 -31 14 -52 17 -21 4 -49 14 -62 22 -21 14 -22 14 -17 -5 3
-12 11 -21 19 -21 7 0 21 -11 30 -25 13 -20 14 -30 4 -60 -6 -19 -16 -35 -21
-35 -13 0 -11 -37 2 -45 16 -11 59 36 59 64 0 21 2 23 10 11 16 -25 11 -52
-10 -57 -13 -3 -22 -17 -26 -40 -7 -39 4 -52 46 -53 l25 0 -25 -13 c-29 -15
-36 -44 -16 -70 19 -25 57 -13 79 25 17 30 17 30 -3 25 -11 -3 -17 -1 -14 5 7
10 55 31 60 25 2 -2 -9 -28 -26 -58 -16 -30 -30 -64 -30 -76 0 -13 -4 -23 -10
-23 -5 0 -7 7 -4 15 9 22 -5 38 -21 25 -8 -7 -19 -9 -24 -5 -6 3 -36 54 -67
113 -32 59 -68 121 -81 139 -13 17 -27 47 -30 67 -5 35 -5 36 26 36 34 0 52
23 32 43 -6 6 -11 17 -11 24 0 18 46 7 79 -19 13 -10 31 -18 39 -18 9 0 23 -6
31 -14 26 -22 119 -59 135 -53 8 3 18 22 22 42 4 21 16 43 30 53 33 23 114
145 114 170 0 11 7 22 15 26 20 7 19 40 -1 57 -13 10 -17 10 -24 0 -5 -10 -9
-10 -15 -1 -4 6 1 17 11 25 18 13 17 14 -9 24 -36 14 -94 14 -102 1 -4 -7 8
-8 34 -4 29 5 41 3 41 -5 0 -7 -4 -10 -9 -7 -5 4 -20 2 -33 -3 -12 -6 -18 -10
-12 -10 12 -1 54 -35 54 -45 0 -3 -9 -6 -20 -6 -28 0 -25 -18 5 -32 29 -13 33
-36 8 -45 -11 -4 -22 1 -31 15 -8 12 -21 22 -28 22 -8 0 -14 9 -14 20 0 11 -5
20 -11 20 -5 0 -8 4 -4 9 7 12 -79 26 -95 16 -8 -5 -5 -11 7 -21 13 -10 8 -10
-22 2 -37 15 -38 15 -25 -2 8 -9 49 -33 90 -51 73 -33 109 -64 110 -92 0 -9
-6 -11 -17 -6 -10 4 -48 7 -85 6 -82 -3 -90 14 -13 24 62 7 70 20 23 39 -18 7
-42 17 -53 21 -11 5 -23 8 -26 7 -3 0 -26 5 -50 13 -33 10 -38 14 -19 14 20 1
22 3 10 11 -21 14 -150 13 -150 -1 0 -6 11 -8 28 -5 15 3 41 2 57 -3 27 -8 23
-9 -27 -10 -66 -1 -88 -8 -88 -27 0 -17 53 -19 97 -4 34 12 146 -8 145 -25 0
-5 -36 -20 -79 -31 -58 -16 -73 -23 -58 -29 11 -4 37 -13 58 -21 20 -8 58 -14
83 -14 49 0 84 -14 84 -32 0 -9 -3 -9 -12 0 -18 18 -28 14 -25 -10 1 -17 -4
-24 -21 -26 -44 -6 -238 80 -248 110 -8 27 -55 59 -84 57 -46 -2 -51 0 -48 24
2 17 10 23 40 25 38 3 74 31 51 39 -7 3 -13 9 -13 14 0 6 38 7 95 3 69 -5 98
-4 110 6 23 19 4 40 -55 61 -43 15 -61 17 -89 9 -55 -15 -89 -12 -100 8 -12
23 -20 132 -9 132 4 0 8 -4 8 -10 0 -5 7 -10 15 -10 11 0 9 11 -10 49 -37 73
-32 96 16 71 12 -7 19 -21 19 -40 0 -35 8 -40 79 -56 l56 -12 -48 -1 c-58 -1
-55 -21 3 -21 21 0 50 -4 64 -10 31 -11 124 -1 104 11 -7 5 -31 9 -53 10 l-40
2 52 10 c40 7 73 6 149 -8 114 -20 112 -27 -15 -70 -93 -31 -106 -31 -125 -3
-17 24 -75 36 -179 37 -54 1 -69 -2 -74 -15 -8 -22 25 -47 52 -39 11 3 46 8
78 12 l58 6 53 -57 c48 -51 56 -56 92 -55 28 2 32 3 13 6 -16 2 -29 12 -32 23
-5 20 10 30 47 30 27 0 114 42 144 70 19 18 22 31 22 100 l0 79 -42 23 c-24
13 -44 29 -44 36 -1 6 -2 18 -3 26 0 7 -26 26 -57 41 -49 24 -58 33 -80 82
-13 31 -24 61 -24 67 0 29 -79 87 -148 111 -71 24 -108 45 -176 99 -40 31
-136 50 -136 27z m448 -417 c12 -4 22 -10 22 -14 0 -10 -49 0 -56 11 -6 10 2
11 34 3z m59 -846 c-3 -8 -6 -5 -6 6 -1 11 2 17 5 13 3 -3 4 -12 1 -19z"/>
<path d="M1747 1855 c-41 -39 -38 -96 7 -141 44 -44 86 -46 126 -5 55 54 50
113 -12 151 -45 27 -87 26 -121 -5z m114 -5 c31 -17 26 -80 -8 -112 -39 -36
-62 -42 -84 -22 -36 33 -20 102 29 128 33 18 38 19 63 6z"/>
<path d="M372 1850 c-7 -12 5 -30 54 -80 56 -56 66 -62 78 -50 13 13 6 23 -54
80 -56 54 -70 63 -78 50z"/>
<path d="M811 1850 c-24 -11 -52 -20 -62 -20 -11 0 -39 -20 -63 -45 -25 -25
-51 -45 -60 -45 -9 0 -25 -9 -37 -21 -17 -17 -20 -31 -17 -77 l3 -56 -45 -8
c-25 -5 -55 -7 -67 -5 -12 2 -20 0 -17 -5 4 -5 45 -8 93 -7 47 2 100 -1 116
-5 29 -8 29 -8 10 7 -11 9 -27 17 -36 17 -21 0 -29 20 -29 76 0 40 3 47 31 62
17 9 47 33 66 53 19 21 45 39 59 42 24 4 24 4 8 -15 -24 -25 -9 -37 54 -45 36
-4 52 -2 52 6 0 6 -15 11 -32 11 -37 0 -71 18 -50 27 6 2 10 8 7 13 -5 9 66
40 93 40 15 0 15 2 2 10 -21 13 -29 12 -79 -10z"/>
<path d="M984 1783 c-3 -10 -10 -26 -15 -35 -12 -23 -12 -58 1 -58 6 0 10 7
10 15 0 8 5 24 10 35 6 11 15 29 20 40 8 16 7 20 -5 20 -9 0 -18 -8 -21 -17z"/>
<path d="M303 1773 c-32 -32 -39 -70 -18 -93 23 -25 42 -25 79 -1 22 15 34 17
48 10 25 -14 22 -37 -6 -50 -14 -7 -22 -17 -19 -25 13 -34 53 4 53 51 0 22 -8
41 -21 54 -21 20 -21 20 -65 -2 -36 -17 -46 -19 -57 -8 -10 10 -7 16 11 31 13
11 22 27 20 37 -3 16 -5 16 -25 -4z"/>
<path d="M895 1770 c-13 -6 -15 -9 -5 -9 8 0 22 4 30 9 18 12 2 12 -25 0z"/>
<path d="M693 1745 c-24 -21 -26 -26 -13 -35 8 -5 24 -10 35 -10 10 0 39 -7
63 -17 32 -12 46 -13 54 -5 9 9 7 12 -9 12 -12 0 -25 5 -28 10 -3 6 -21 10
-38 10 -51 0 -64 13 -38 39 29 29 8 26 -26 -4z"/>
<path d="M1390 1740 c11 -11 31 -20 45 -20 15 0 40 -7 58 -15 l32 -15 -27 21
c-26 22 -90 49 -115 49 -8 0 -5 -8 7 -20z"/>
<path d="M1940 1669 c-19 -27 -38 -49 -42 -49 -14 0 -38 -47 -33 -62 5 -12 15
-13 53 -7 26 5 70 12 99 16 39 6 50 11 44 21 -6 10 -21 10 -77 -2 -38 -8 -71
-13 -73 -11 -2 2 14 26 36 52 52 63 55 69 40 81 -9 8 -21 -2 -47 -39z"/>
<path d="M866 1680 c-16 -10 -67 -31 -113 -46 -45 -16 -83 -31 -83 -35 0 -9
128 -4 137 5 3 3 -4 6 -16 6 -12 0 -19 4 -16 10 3 6 17 10 31 10 14 0 40 11
57 25 18 13 44 28 57 34 l25 10 -25 0 c-14 0 -38 -9 -54 -19z"/>
<path d="M1592 1634 c7 -17 21 -41 30 -55 17 -23 17 -22 2 16 -9 22 -22 47
-30 55 -13 13 -13 11 -2 -16z"/>
<path d="M215 1634 c-21 -22 -59 -103 -51 -111 3 -4 6 -1 6 6 0 12 82 -26 131
-60 24 -17 28 -17 33 -3 9 22 7 34 -3 34 -5 0 -39 17 -74 38 -55 31 -64 40
-56 55 20 35 69 14 69 -30 0 -19 5 -23 33 -23 50 0 77 11 77 30 0 15 -6 16
-42 10 -51 -10 -58 -6 -58 25 0 14 -8 29 -19 35 -25 13 -27 13 -46 -6z"/>
<path d="M1075 1640 c-5 -8 -19 -10 -38 -6 -39 8 -25 -9 15 -19 21 -5 29 -3
34 9 8 20 -1 32 -11 16z"/>
<path d="M840 1585 c-19 -19 -29 -35 -24 -35 6 0 27 16 48 35 21 19 32 35 24
35 -8 0 -29 -16 -48 -35z"/>
<path d="M880 1555 c-30 -19 -48 -35 -41 -35 15 0 98 48 107 61 10 17 -11 8
-66 -26z"/>
<path d="M1023 1543 c9 -2 23 -2 30 0 6 3 -1 5 -18 5 -16 0 -22 -2 -12 -5z"/>
<path d="M698 1514 c-13 -14 -21 -14 -50 -4 -42 15 -137 6 -164 -16 -18 -15
-18 -15 6 -9 83 21 159 18 195 -9 18 -13 18 -14 -2 -25 -16 -8 -31 -7 -63 4
-58 21 -71 19 -35 -5 40 -26 88 -35 115 -20 18 10 21 18 16 42 -3 18 -1 37 5
44 16 19 -3 17 -23 -2z"/>
<path d="M2003 1496 c-76 -28 -98 -46 -74 -61 8 -4 158 49 169 60 2 2 0 10 -5
18 -7 12 -21 9 -90 -17z"/>
<path d="M915 1510 c-11 -17 -83 -50 -109 -50 -14 0 -37 -5 -53 -12 -22 -9
-24 -12 -10 -15 9 -3 17 -11 17 -19 0 -19 13 -18 26 4 7 10 30 24 51 30 44 13
126 72 100 72 -9 0 -19 -5 -22 -10z"/>
<path d="M127 1438 c-4 -18 -9 -43 -13 -55 -6 -20 -3 -23 24 -23 17 0 56 -9
87 -21 31 -12 58 -19 59 -17 12 14 33 99 26 103 -5 3 -12 -10 -16 -30 -3 -19
-7 -35 -9 -35 -1 0 -16 5 -34 11 -28 10 -31 15 -26 39 3 16 2 31 -4 35 -7 4
-11 -4 -11 -19 0 -31 -12 -39 -45 -30 -24 6 -26 10 -20 40 3 19 2 34 -3 34 -5
0 -12 -15 -15 -32z"/>
<path d="M415 1458 c-4 -10 -17 -18 -29 -18 -36 0 -55 -22 -57 -65 -1 -52 10
-132 24 -170 13 -36 47 -85 59 -85 12 0 -2 52 -20 73 -30 35 -47 201 -21 218
8 6 48 8 90 6 85 -5 154 -31 195 -72 14 -14 28 -24 31 -21 3 3 -10 20 -28 39
-27 26 -53 38 -124 57 -49 13 -95 30 -102 39 -10 15 -12 14 -18 -1z"/>
<path d="M2100 1425 c-14 -7 -52 -18 -84 -24 -33 -6 -61 -13 -64 -15 -8 -8 20
-106 30 -106 5 0 6 10 2 23 -13 42 -10 51 24 58 31 6 33 5 39 -22 8 -39 24
-37 21 3 -3 26 1 32 25 39 23 6 28 4 33 -16 3 -14 12 -29 19 -35 11 -9 11 -4
0 32 -7 24 -14 51 -16 60 -4 14 -7 15 -29 3z"/>
<path d="M780 1371 c-5 -11 -10 -33 -10 -48 0 -16 -6 -35 -12 -42 -10 -11 -10
-14 0 -18 6 -3 12 -15 12 -28 0 -25 -8 -29 -75 -40 -22 -3 -51 -12 -64 -19
-22 -12 -21 -13 20 -11 24 2 59 8 78 14 39 12 49 8 32 -12 -8 -11 -6 -18 9
-32 11 -10 20 -30 19 -44 0 -15 -3 -20 -6 -11 -10 28 -57 70 -77 70 -17 0 -14
-6 19 -34 30 -26 37 -37 29 -46 -9 -9 -23 -7 -60 10 -61 28 -109 28 -212 0
-69 -19 -82 -26 -95 -51 -12 -25 -16 -28 -26 -15 -9 11 -10 20 -2 35 17 30 13
36 -9 16 -41 -37 -15 -95 42 -95 37 0 113 -42 128 -71 18 -32 15 -97 -5 -119
-17 -19 -17 -20 0 -26 30 -12 47 23 40 81 -3 27 -7 67 -8 87 -1 21 -5 38 -9
38 -5 0 -8 -4 -8 -10 0 -21 -22 -9 -38 22 -9 17 -25 40 -35 50 -16 16 -21 17
-35 6 -15 -12 -16 -11 -3 4 7 10 29 20 50 23 20 3 60 11 89 17 45 10 62 9 105
-6 29 -9 66 -18 82 -19 17 -1 35 -9 42 -17 6 -8 17 -15 25 -15 7 0 14 -14 16
-32 2 -18 7 -33 11 -33 10 0 35 -100 26 -108 -4 -4 -13 2 -21 12 -16 22 -18 6
-5 -29 13 -33 -22 -145 -45 -145 -13 0 -20 69 -15 155 l1 20 -9 -20 c-13 -27
-13 -162 -1 -170 5 -3 7 -12 4 -19 -3 -7 9 -24 26 -37 82 -64 82 -64 84 -105
1 -32 -2 -39 -18 -39 -21 0 -55 41 -116 141 -63 103 -186 162 -248 118 -35
-24 -23 -96 23 -134 16 -13 16 -11 0 25 -9 22 -19 45 -21 51 -3 6 2 17 11 24
13 11 15 10 10 -1 -3 -8 5 -19 20 -26 20 -9 25 -8 25 2 0 8 -8 19 -17 25 -14
9 -9 10 25 6 24 -2 46 -7 49 -9 8 -9 -18 -49 -73 -115 -42 -49 -54 -71 -54
-97 0 -19 5 -37 10 -40 6 -3 10 3 10 15 0 33 25 82 65 124 20 22 43 53 51 68
8 15 18 28 23 28 15 0 69 -68 92 -113 11 -23 35 -54 52 -69 35 -30 23 -37 -23
-13 -18 9 -30 24 -30 35 0 25 -9 25 -26 2 -12 -15 -13 -13 -8 14 5 24 -1 41
-21 73 -32 48 -46 49 -16 1 25 -42 18 -60 -26 -60 -19 0 -32 -4 -29 -9 3 -5
-8 -14 -25 -21 -34 -14 -49 -38 -48 -72 1 -19 3 -18 11 9 13 41 37 52 30 15
-5 -24 -3 -26 11 -13 10 7 17 22 17 32 0 16 3 17 19 7 25 -15 34 -59 16 -77
-8 -8 -30 -15 -50 -15 -29 -1 -35 -5 -35 -23 0 -29 17 -33 65 -16 47 16 74 47
75 86 0 15 2 27 4 27 2 0 24 -9 50 -21 31 -13 62 -19 93 -17 40 3 49 7 56 28
15 42 -9 107 -48 133 -44 28 -50 44 -28 75 44 60 53 79 53 103 0 15 7 32 15
39 23 19 18 45 -20 124 -41 84 -65 172 -65 238 0 48 10 66 56 95 17 11 16 12
-10 6 -20 -4 -27 -3 -22 6 4 6 26 11 49 11 35 1 39 2 23 12 -11 6 -39 8 -68 5
l-50 -6 4 44 c3 48 -5 57 -22 26z"/>
<path d="M500 1360 c0 -5 18 -10 40 -10 48 0 50 -8 10 -35 -39 -26 -39 -40 0
-20 32 17 66 20 74 6 7 -10 -17 -21 -45 -21 -10 0 -19 -5 -19 -11 0 -7 11 -9
26 -6 42 8 13 -11 -50 -33 -73 -25 -70 -25 -102 5 -25 23 -44 25 -44 5 0 -5
20 -21 44 -35 40 -24 45 -24 82 -11 59 21 160 74 175 93 13 14 11 14 -19 -1
-19 -10 -36 -15 -39 -13 -2 3 5 8 16 12 24 7 28 25 6 25 -7 0 -18 6 -22 13
-16 26 -58 47 -95 47 -21 0 -38 -4 -38 -10z"/>
<path d="M1051 1333 c-27 -22 -40 -77 -41 -163 0 -37 -5 -71 -12 -78 -19 -19
-1 -26 40 -16 33 8 37 12 34 39 -16 158 -16 157 53 195 l40 22 -47 -6 c-39 -5
-46 -3 -42 9 8 20 1 19 -25 -2z"/>
<path d="M100 1312 c0 -12 23 -29 68 -52 l67 -33 -40 -10 c-102 -23 -115 -28
-115 -44 0 -11 7 -14 28 -10 15 3 58 11 95 18 92 17 89 35 -20 99 -67 39 -83
46 -83 32z"/>
<path d="M1195 1323 c40 -10 62 -43 28 -43 -16 0 -16 -1 -1 -17 14 -13 20 -14
32 -3 17 13 21 46 8 54 -5 3 -26 7 -48 9 -21 3 -30 2 -19 0z"/>
<path d="M1109 1273 c-23 -25 -11 -24 21 2 8 7 24 15 35 18 16 4 15 5 -6 6
-16 1 -35 -9 -50 -26z"/>
<path d="M1175 1250 c-3 -5 1 -10 9 -10 9 0 16 5 16 10 0 6 -4 10 -9 10 -6 0
-13 -4 -16 -10z"/>
<path d="M2063 1253 c-98 -4 -112 -23 -18 -23 36 0 65 -3 65 -6 0 -3 -27 -37
-61 -74 -33 -38 -58 -74 -54 -79 3 -7 43 -11 95 -11 75 0 88 2 84 15 -5 11
-22 15 -65 15 -32 0 -59 3 -59 7 0 4 28 35 61 69 42 42 60 67 56 78 -4 9 -10
15 -14 14 -4 -1 -45 -4 -90 -5z"/>
<path d="M878 1233 c6 -2 18 -2 25 0 6 3 1 5 -13 5 -14 0 -19 -2 -12 -5z"/>
<path d="M640 1215 c-25 -8 -54 -18 -65 -24 -11 -5 -39 -14 -62 -20 -41 -11
-99 -50 -75 -51 7 0 30 9 52 20 22 11 46 20 54 20 8 0 36 11 63 24 26 13 59
28 73 34 35 15 13 13 -40 -3z"/>
<path d="M80 1083 c0 -16 11 -18 96 -21 87 -2 95 -1 92 15 -3 15 -17 18 -96
21 -83 2 -92 1 -92 -15z"/>
<path d="M1795 1070 c3 -5 12 -10 20 -10 8 0 17 5 20 10 4 6 -5 10 -20 10 -15
0 -24 -4 -20 -10z"/>
<path d="M497 1044 c-11 -11 3 -24 18 -18 9 4 19 -4 26 -20 15 -32 32 -33 56
-3 10 13 25 26 33 30 11 4 9 6 -5 6 -11 0 -26 -3 -34 -8 -10 -6 -22 -5 -35 5
-22 15 -48 18 -59 8z"/>
<path d="M1982 1018 c-20 -20 -14 -67 13 -93 34 -35 59 -32 85 10 22 35 43 44
56 24 3 -6 1 -22 -7 -35 -9 -18 -10 -27 -1 -36 8 -8 14 -4 23 15 16 36 1 87
-30 98 -20 8 -29 3 -61 -32 -25 -28 -43 -40 -54 -36 -18 7 -21 38 -5 54 7 7 8
17 2 27 -7 13 -12 13 -21 4z"/>
<path d="M190 1005 c-30 -7 -67 -14 -82 -14 -28 -1 -37 -14 -18 -26 6 -4 33
-1 60 5 27 7 54 10 59 8 5 -1 -13 -36 -41 -77 -51 -76 -57 -109 -15 -97 12 3
52 12 90 18 37 7 67 15 67 19 0 17 -20 19 -69 7 -28 -6 -53 -9 -56 -6 -3 3 15
40 40 82 41 66 50 99 27 95 -4 -1 -32 -7 -62 -14z"/>
<path d="M622 1002 c-37 -24 -25 -32 51 -32 50 0 67 3 57 10 -8 5 -25 10 -37
10 -12 0 -28 6 -35 14 -11 11 -17 11 -36 -2z"/>
<path d="M750 982 c0 -5 11 -17 25 -26 17 -11 25 -26 25 -46 0 -34 15 -40 25
-10 9 28 -25 84 -53 88 -12 2 -22 -1 -22 -6z"/>
<path d="M975 980 c-19 -8 -18 -9 5 -10 78 -5 150 -2 152 6 4 12 -131 16 -157
4z"/>
<path d="M990 929 c0 -5 18 -9 41 -9 22 0 38 4 35 9 -3 5 -22 9 -41 9 -19 0
-35 -4 -35 -9z"/>
<path d="M610 904 c-8 -8 -13 -29 -13 -47 0 -18 -4 -38 -10 -44 -16 -21 17
-16 36 5 12 13 14 21 6 29 -27 27 25 78 54 55 7 -5 32 -12 57 -14 l45 -6 -40
19 c-50 23 -118 25 -135 3z"/>
<path d="M1321 876 c-1 -26 2 -37 9 -30 6 6 6 21 1 39 -9 30 -9 30 -10 -9z"/>
<path d="M671 861 c-13 -10 -21 -23 -17 -29 4 -6 0 -25 -9 -42 -11 -20 -13
-36 -7 -47 9 -15 11 -14 20 3 5 10 13 39 17 64 4 25 12 51 17 58 14 17 7 15
-21 -7z"/>
<path d="M1944 869 c-9 -16 4 -24 76 -47 36 -11 73 -24 83 -27 12 -5 17 -2 17
12 0 14 -18 25 -77 46 -88 31 -89 31 -99 16z"/>
<path d="M717 765 c7 -62 19 -77 28 -35 5 22 3 35 -8 43 -8 7 -17 19 -20 27
-3 8 -3 -7 0 -35z"/>
<path d="M1916 788 c-21 -30 -20 -50 5 -82 26 -33 43 -33 86 0 49 37 87 19 43
-21 -21 -19 -27 -45 -11 -45 17 0 41 43 41 72 0 18 -8 33 -24 43 -27 18 -48
12 -79 -23 -22 -24 -57 -18 -57 9 0 10 9 24 19 31 10 6 17 18 14 25 -7 19 -20
16 -37 -9z"/>
<path d="M210 749 c-65 -18 -65 -18 -49 -34 12 -11 25 -10 89 6 64 17 76 17
88 5 24 -24 6 -59 -53 -101 -56 -40 -63 -49 -44 -60 16 -10 118 62 129 91 15
38 12 49 -16 78 -29 28 -76 33 -144 15z"/>
<path d="M458 619 c-24 -13 -23 -31 3 -47 27 -17 40 -5 15 14 -16 11 -17 16
-6 29 14 17 12 18 -12 4z"/>
<path d="M1345 271 c-32 -9 -58 -19 -57 -23 1 -5 2 -12 2 -17 0 -5 15 -4 35 2
19 6 37 8 40 6 2 -3 -4 -37 -15 -75 -24 -84 -24 -86 -3 -82 11 2 24 32 44 106
15 56 24 101 21 101 -4 -1 -34 -9 -67 -18z"/>
<path d="M860 267 c0 -8 5 -17 11 -19 11 -4 7 -23 -27 -140 -4 -13 0 -18 14
-18 16 0 23 16 42 85 13 47 21 87 19 89 -2 3 -16 7 -32 11 -20 6 -27 4 -27 -8z"/>
<path d="M981 224 c-12 -15 -21 -33 -21 -41 0 -17 45 -63 61 -63 7 0 2 -11
-10 -24 -17 -18 -19 -26 -10 -32 8 -5 28 9 56 40 32 36 43 56 43 80 0 65 -79
91 -119 40z m80 -20 c9 -11 10 -20 2 -32 -13 -22 -43 -22 -56 -1 -24 38 25 68
54 33z"/>
<path d="M1150 230 c-11 -11 -20 -31 -20 -45 0 -32 36 -68 61 -62 17 5 18 3 4
-24 -18 -34 -19 -39 -2 -39 17 0 77 100 77 128 0 31 -35 62 -70 62 -17 0 -39
-9 -50 -20z m78 -39 c6 -37 -26 -52 -52 -25 -12 12 -13 20 -5 35 15 28 53 21
57 -10z"/>
</g>
</svg>
